<svg xmlns="http://www.w3.org/2000/svg" viewBox="0 0 64 64" width="64" height="64">
  <!-- Background -->
  <rect width="64" height="64" fill="#040810"/>

  <!-- Maya's head - pixel art style using rects -->
  <!-- Hair (dark, voluminous) -->
  <rect x="12" y="24" width="26" height="6" fill="#1a1420"/>
  <rect x="10" y="28" width="30" height="10" fill="#1a1420"/>
  <rect x="8" y="34" width="8" height="16" fill="#1a1420"/>
  <rect x="32" y="30" width="6" height="12" fill="#1a1420"/>
  <!-- Hair mid tones -->
  <rect x="14" y="26" width="22" height="6" fill="#2a2030"/>
  <rect x="10" y="32" width="4" height="10" fill="#2a2030"/>

  <!-- Green streak -->
  <rect x="28" y="24" width="8" height="14" fill="#3a8a60"/>
  <rect x="30" y="25" width="4" height="10" fill="#6effa0" opacity="0.7"/>

  <!-- Face -->
  <rect x="14" y="32" width="22" height="20" fill="#b08868"/>
  <rect x="16" y="30" width="18" height="4" fill="#b08868"/>
  <rect x="16" y="50" width="18" height="4" fill="#b08868"/>
  <!-- Face shading -->
  <rect x="14" y="34" width="10" height="14" fill="#c8a080"/>
  <rect x="28" y="34" width="8" height="14" fill="#8a6850"/>

  <!-- Eyes -->
  <!-- Whites -->
  <rect x="15" y="38" width="8" height="6" fill="#e8ece8"/>
  <rect x="27" y="38" width="8" height="6" fill="#e8ece8"/>
  <!-- Iris (green) -->
  <rect x="17" y="39" width="5" height="5" fill="#6effa0"/>
  <rect x="29" y="39" width="5" height="5" fill="#6effa0"/>
  <!-- Pupils -->
  <rect x="19" y="40" width="3" height="3" fill="#081408"/>
  <rect x="31" y="40" width="3" height="3" fill="#081408"/>
  <!-- Lash line -->
  <rect x="15" y="37" width="8" height="2" fill="#1a1420"/>
  <rect x="27" y="37" width="8" height="2" fill="#1a1420"/>
  <!-- Catch light -->
  <rect x="17" y="38" width="2" height="2" fill="#ffffff"/>
  <rect x="29" y="38" width="2" height="2" fill="#ffffff"/>

  <!-- Nose -->
  <rect x="24" y="44" width="3" height="3" fill="#8a6850"/>

  <!-- Mouth -->
  <rect x="20" y="49" width="10" height="2" fill="#8a5050"/>

  <!-- Ears -->
  <rect x="8" y="38" width="4" height="8" fill="#b08868"/>
  <rect x="38" y="38" width="4" height="8" fill="#b08868"/>

  <!-- Speech bubble -->
  <rect x="2" y="2" width="60" height="18" rx="0" fill="#0a1a10" stroke="#6effa0" stroke-width="1" opacity="0.95"/>
  <!-- Bubble tail -->
  <polygon points="14,20 18,20 16,24" fill="#0a1a10" stroke="#6effa0" stroke-width="1"/>
  <rect x="14" y="19" width="5" height="2" fill="#0a1a10"/>

  <!-- Text in bubble -->
  <text x="6" y="9" font-family="monospace" font-size="5.5" fill="#6effa0" font-weight="bold">fmt.Println(</text>
  <text x="8" y="16" font-family="monospace" font-size="5.5" fill="#6effa0" font-weight="bold">"Help Me!")</text>
</svg>
